<?xml version="1.0" encoding="UTF-8"?>
<svg version="1.1" xmlns="http://www.w3.org/2000/svg" width="296" height="219">
<path d="M0 0 C0.81807725 0.00291284 1.6361545 0.00582568 2.47902197 0.00882679 C3.77274793 0.00754515 3.77274793 0.00754515 5.09260976 0.00623763 C8.00544628 0.00458017 10.91822621 0.01010851 13.83105749 0.01555592 C15.90999628 0.01583776 17.98893517 0.01568012 20.0678739 0.01511341 C25.73086586 0.01482532 31.39383684 0.020724 37.05682391 0.02768737 C42.96789041 0.0339189 48.87895733 0.03452455 54.79002661 0.03571278 C65.99206842 0.03882669 77.19410054 0.04704088 88.39613807 0.05706227 C101.1456151 0.06822155 113.89509258 0.07373339 126.64457327 0.0787577 C152.87918473 0.08922345 179.11378756 0.10682404 205.34839147 0.12908131 C205.39776847 4.64973559 205.4340997 9.17023348 205.45825475 13.69109303 C205.46832265 15.22953229 205.48197793 16.76795238 205.49927038 18.3063274 C205.52348464 20.51552264 205.53486638 22.72446526 205.54370397 24.93376881 C205.55402654 25.62340718 205.56434911 26.31304554 205.57498449 27.02358204 C205.57538626 28.72709037 205.47030173 30.42994074 205.34839147 32.12908131 C204.35839147 33.11908131 204.35839147 33.11908131 203.34839147 34.12908131 C201.11339021 33.92186402 198.87928582 33.70025738 196.65095228 33.43062931 C189.35676462 32.76461653 181.98725382 32.99082412 174.66748327 32.99968678 C172.78251894 32.99833006 170.89755487 32.9965486 169.0125913 32.99437672 C163.91796225 32.9898362 158.82335356 32.99157758 153.72872418 32.9947558 C148.38993537 32.99729504 143.05114825 32.99493769 137.71235937 32.99336964 C128.75403812 32.9915533 119.79572514 32.99394103 110.83740515 32.99871022 C100.48083445 33.00416011 90.12428342 33.00238275 79.76771319 32.99688381 C70.86729308 32.99234734 61.96687888 32.99170451 53.06645799 32.99432248 C47.75397082 32.99588123 42.4414929 32.99608981 37.12900633 32.99278599 C32.13935257 32.98989925 27.14972423 32.99189779 22.16007322 32.99768025 C20.32868772 32.99900317 18.49730008 32.99862165 16.66591543 32.99641758 C14.16772644 32.99368796 11.66961908 32.99710938 9.1714353 33.00209767 C8.44575863 32.99986694 7.72008196 32.99763622 6.97241509 32.9953379 C4.05529763 33.0066479 1.39949224 33.11753598 -1.45304877 33.76201779 C-3.65160853 34.12908131 -3.65160853 34.12908131 -6.65160853 32.12908131 C-7.00805384 29.07219654 -7.00805384 29.07219654 -6.97973353 25.18767506 C-6.97786036 24.50479923 -6.97598719 23.82192341 -6.97405726 23.11835438 C-6.96733396 21.67502162 -6.95341376 20.23170718 -6.93285853 18.78850514 C-6.90168166 16.57178146 -6.89188679 14.35576817 -6.88598353 12.13884693 C-6.80662612 0.01838881 -6.80662612 0.01838881 0 0 Z " fill="#DCCBA2" transform="translate(53.651608526706696,151.8709186911583)"/>
<path d="M0 0 C0.78246094 -0.01417969 1.56492187 -0.02835938 2.37109375 -0.04296875 C4.5625 0.1875 4.5625 0.1875 7.5625 2.1875 C7.5625 2.8475 7.5625 3.5075 7.5625 4.1875 C6.9025 4.1875 6.2425 4.1875 5.5625 4.1875 C4.97845962 10.06390416 4.97845962 10.06390416 7 15.375 C10.80291769 18.06486861 14.65596046 20.65056086 18.5625 23.1875 C20.64700691 24.58158013 22.7303057 25.97746811 24.8125 27.375 C28.34564934 29.74445333 31.90800735 32.01074683 35.5625 34.1875 C37.0475 35.1775 37.0475 35.1775 38.5625 36.1875 C38.5625 37.1775 38.5625 38.1675 38.5625 39.1875 C34.4145642 40.32779969 31.57299663 39.96847091 27.4375 38.875 C26.40367187 38.61074219 25.36984375 38.34648438 24.3046875 38.07421875 C21.5625 37.1875 21.5625 37.1875 18.5625 35.1875 C18.5625 34.5275 18.5625 33.8675 18.5625 33.1875 C17.61375 32.878125 16.665 32.56875 15.6875 32.25 C12.5625 31.1875 12.5625 31.1875 10.5625 30.1875 C10.4696875 31.7034375 10.4696875 31.7034375 10.375 33.25 C9.94915595 36.40887306 9.02587072 38.19226517 7.0625 40.6875 C3.40282317 45.39129212 3.38666879 50.38507001 3.5625 56.1875 C2.0775 56.6825 2.0775 56.6825 0.5625 57.1875 C0.0675 53.7225 0.0675 53.7225 -0.4375 50.1875 C-1.7575 50.1875 -3.0775 50.1875 -4.4375 50.1875 C-4.7675 51.5075 -5.0975 52.8275 -5.4375 54.1875 C-6.0975 54.1875 -6.7575 54.1875 -7.4375 54.1875 C-7.685 54.826875 -7.9325 55.46625 -8.1875 56.125 C-9.4375 58.1875 -9.4375 58.1875 -11.5 58.8125 C-12.139375 58.93625 -12.77875 59.06 -13.4375 59.1875 C-13.9325 60.1775 -13.9325 60.1775 -14.4375 61.1875 C-15.81312854 59.89784824 -17.14516393 58.56060707 -18.4375 57.1875 C-18.4375 56.5275 -18.4375 55.8675 -18.4375 55.1875 C-19.0975 55.1875 -19.7575 55.1875 -20.4375 55.1875 C-20.4375 59.8075 -20.4375 64.4275 -20.4375 69.1875 C-16.8075 69.1875 -13.1775 69.1875 -9.4375 69.1875 C-9.169375 68.218125 -8.90125 67.24875 -8.625 66.25 C-8.233125 65.239375 -7.84125 64.22875 -7.4375 63.1875 C-6.4475 62.8575 -5.4575 62.5275 -4.4375 62.1875 C-4.4375 68.7875 -4.4375 75.3875 -4.4375 82.1875 C-5.7575 81.8575 -7.0775 81.5275 -8.4375 81.1875 C-9.6875 78.625 -9.6875 78.625 -10.4375 76.1875 C-13.7375 76.1875 -17.0375 76.1875 -20.4375 76.1875 C-19.9425 88.5625 -19.9425 88.5625 -19.4375 101.1875 C-7.2120056 101.41931973 -7.2120056 101.41931973 1.5625 95.1875 C2.0575 93.7025 2.0575 93.7025 2.5625 92.1875 C4.5425 92.6825 4.5425 92.6825 6.5625 93.1875 C6.28111942 95.48045236 5.9870814 97.77185456 5.6875 100.0625 C5.52507812 101.33867187 5.36265625 102.61484375 5.1953125 103.9296875 C4.5625 107.1875 4.5625 107.1875 2.5625 109.1875 C-0.52274939 109.36303419 -3.51714202 109.41872797 -6.6015625 109.3828125 C-7.96237442 109.37856766 -7.96237442 109.37856766 -9.35067749 109.37423706 C-12.25475123 109.36302153 -15.15851912 109.33791463 -18.0625 109.3125 C-20.02864139 109.30247197 -21.9947876 109.29334581 -23.9609375 109.28515625 C-28.78657659 109.26307772 -33.6119864 109.22853865 -38.4375 109.1875 C-38.7675 107.8675 -39.0975 106.5475 -39.4375 105.1875 C-36.9625 104.1975 -36.9625 104.1975 -34.4375 103.1875 C-34.7675 84.3775 -35.0975 65.5675 -35.4375 46.1875 C-36.7575 45.8575 -38.0775 45.5275 -39.4375 45.1875 C-39.125 43.25 -39.125 43.25 -38.4375 41.1875 C-36.9525 40.6925 -36.9525 40.6925 -35.4375 40.1875 C-37.0875 36.8875 -38.7375 33.5875 -40.4375 30.1875 C-41.7575 31.1775 -43.0775 32.1675 -44.4375 33.1875 C-45.0975 33.1875 -45.7575 33.1875 -46.4375 33.1875 C-46.7675 33.8475 -47.0975 34.5075 -47.4375 35.1875 C-51.45359378 38.42628531 -55.26248512 38.66373594 -60.23046875 38.9765625 C-62.47798339 39.05770518 -62.47798339 39.05770518 -64.4375 40.1875 C-65.0975 39.8575 -65.7575 39.5275 -66.4375 39.1875 C-66.3125 37.3125 -66.3125 37.3125 -65.4375 35.1875 C-62.4375 34.0625 -62.4375 34.0625 -59.4375 33.1875 C-59.1075 32.5275 -58.7775 31.8675 -58.4375 31.1875 C-52.8422619 26.1875 -52.8422619 26.1875 -50.4375 26.1875 C-49.43452825 25.19048061 -48.43518251 24.18981213 -47.4375 23.1875 C-45.81819657 22.12508556 -44.16951519 21.10662472 -42.5 20.125 C-41.64535156 19.61839844 -40.79070312 19.11179687 -39.91015625 18.58984375 C-37.4375 17.1875 -37.4375 17.1875 -35.18359375 16.12890625 C-33.25731881 15.30635182 -33.25731881 15.30635182 -32.4375 13.1875 C-31.4475 13.1875 -30.4575 13.1875 -29.4375 13.1875 C-29.4375 12.5275 -29.4375 11.8675 -29.4375 11.1875 C-22.6875 7.1875 -22.6875 7.1875 -20.4375 7.1875 C-20.1075 6.5275 -19.7775 5.8675 -19.4375 5.1875 C-16.875 3.25 -16.875 3.25 -13.4375 2.1875 C-10.45882633 3.44955922 -7.98182887 5.20498994 -5.4375 7.1875 C-5.1075 6.5275 -4.7775 5.8675 -4.4375 5.1875 C-5.0975 5.1875 -5.7575 5.1875 -6.4375 5.1875 C-6.4375 3.8675 -6.4375 2.5475 -6.4375 1.1875 C-4.0978331 0.01766655 -2.60358473 0.0213759 0 0 Z M-17.4375 13.1875 C-17.4375 13.8475 -17.4375 14.5075 -17.4375 15.1875 C-18.7575 15.5175 -20.0775 15.8475 -21.4375 16.1875 C-21.4375 16.8475 -21.4375 17.5075 -21.4375 18.1875 C-20.7775 18.1875 -20.1175 18.1875 -19.4375 18.1875 C-19.1075 18.8475 -18.7775 19.5075 -18.4375 20.1875 C-17.7775 20.8475 -17.1175 21.5075 -16.4375 22.1875 C-15.7775 22.8475 -15.1175 23.5075 -14.4375 24.1875 C-14.025 23.73375 -13.6125 23.28 -13.1875 22.8125 C-11.4375 21.1875 -11.4375 21.1875 -9.3125 20.1875 C-7.0844565 19.27547022 -7.0844565 19.27547022 -6.4375 16.1875 C-7.076875 16.06375 -7.71625 15.94 -8.375 15.8125 C-9.3959375 15.503125 -9.3959375 15.503125 -10.4375 15.1875 C-10.7675 14.5275 -11.0975 13.8675 -11.4375 13.1875 C-13.4175 13.1875 -15.3975 13.1875 -17.4375 13.1875 Z " fill="#C82830" transform="translate(164.4375,33.8125)"/>
<path d="M0 0 C6.93 0 13.86 0 21 0 C21 1.65 21 3.3 21 5 C20.01 5.33 19.02 5.66 18 6 C16.77215191 7.00559794 16.77215191 7.00559794 16.88647461 9.04125977 C16.89432983 10.35308228 16.89432983 10.35308228 16.90234375 11.69140625 C16.90717773 13.10776367 16.90717773 13.10776367 16.91210938 14.55273438 C16.92048828 15.54595703 16.92886719 16.53917969 16.9375 17.5625 C16.94201172 18.55958984 16.94652344 19.55667969 16.95117188 20.58398438 C16.96299977 23.05601487 16.98093585 25.52801472 17 28 C22.94 28 28.88 28 35 28 C34.67 20.41 34.34 12.82 34 5 C32.68 4.67 31.36 4.34 30 4 C30.33 2.68 30.66 1.36 31 0 C37.6 0 44.2 0 51 0 C51.495 1.98 51.495 1.98 52 4 C50.68 4.33 49.36 4.66 48 5 C48 23.48 48 41.96 48 61 C49.32 61.66 50.64 62.32 52 63 C51.67 64.65 51.34 66.3 51 68 C44.4 68 37.8 68 31 68 C31 66.35 31 64.7 31 63 C32.98 62.505 32.98 62.505 35 62 C35 53.09 35 44.18 35 35 C29.06 35 23.12 35 17 35 C17 43.91 17 52.82 17 62 C18.65 62.66 20.3 63.32 22 64 C21.67 64.99 21.34 65.98 21 67 C14.29980211 67.70132913 7.73742646 68.11044961 1 68 C0.505 65.525 0.505 65.525 0 63 C1.32 62.34 2.64 61.68 4 61 C4 42.52 4 24.04 4 5 C2.68 5 1.36 5 0 5 C-0.33 4.01 -0.66 3.02 -1 2 C-0.67 1.34 -0.34 0.68 0 0 Z " fill="#11484D" transform="translate(72,75)"/>
<path d="M0 0 C1.21623047 -0.01224609 2.43246094 -0.02449219 3.68554688 -0.03710938 C12.73396913 -0.05183822 20.70105627 0.10230868 27.9375 6.1875 C31.53196969 10.67500564 32.4849764 14.38425013 31.9375 20.1875 C31.47986105 23.48250046 30.55042691 25.09715847 27.9375 27.1875 C27.2775 27.1875 26.6175 27.1875 25.9375 27.1875 C25.9375 27.8475 25.9375 28.5075 25.9375 29.1875 C25.2775 29.8475 24.6175 30.5075 23.9375 31.1875 C24.63875 31.414375 25.34 31.64125 26.0625 31.875 C30.68806465 33.98667082 33.9475628 36.7355921 36.8125 40.9375 C38.54515284 45.94294154 39.04799722 50.38904699 37.05859375 55.40234375 C34.20465242 60.46031898 31.16014648 62.76269985 25.9375 65.1875 C25.19927002 65.54247559 24.46104004 65.89745117 23.70043945 66.26318359 C20.20354927 67.43303658 16.87917779 67.54100893 13.23046875 67.6015625 C12.50507401 67.62092865 11.77967926 67.6402948 11.03230286 67.6602478 C8.72998578 67.71972108 6.42761781 67.76629845 4.125 67.8125 C2.55792168 67.85070958 0.99086369 67.88976303 -0.57617188 67.9296875 C-4.40478152 68.02539563 -8.23348942 68.10954448 -12.0625 68.1875 C-12.7225 66.8675 -13.3825 65.5475 -14.0625 64.1875 C-13.2482959 63.83598877 -12.4340918 63.48447754 -11.59521484 63.12231445 C-8.74096115 61.38919914 -8.74096115 61.38919914 -8.47900391 58.07495117 C-8.49882324 56.80627197 -8.51864258 55.53759277 -8.5390625 54.23046875 C-8.54340302 53.53866013 -8.54774353 52.8468515 -8.55221558 52.13407898 C-8.57287787 49.87998613 -8.6295596 47.62841649 -8.6875 45.375 C-8.70951005 43.83287006 -8.72968617 42.29071287 -8.74804688 40.74853516 C-8.9156624 28.88622553 -9.34636525 17.02929968 -10.0625 5.1875 C-11.3825 4.8575 -12.7025 4.5275 -14.0625 4.1875 C-14.0625 -2.61226996 -5.2180068 0.00270503 0 0 Z M4.9375 6.1875 C4.9375 13.1175 4.9375 20.0475 4.9375 27.1875 C13.81018146 28.97365635 13.81018146 28.97365635 16.9375 27.1875 C19.66007635 23.29810521 20.95892897 21.40895105 20.875 16.625 C19.55237733 11.6033864 19.55237733 11.6033864 16.9375 7.1875 C12.75982888 5.48837257 9.24673451 4.7510885 4.9375 6.1875 Z M4.9375 33.1875 C4.8507438 37.47904022 4.7971911 41.77035668 4.75 46.0625 C4.72486328 47.28582031 4.69972656 48.50914063 4.67382812 49.76953125 C4.66416016 50.93613281 4.65449219 52.10273437 4.64453125 53.3046875 C4.6288208 54.38347168 4.61311035 55.46225586 4.59692383 56.57373047 C4.70931396 57.43627441 4.8217041 58.29881836 4.9375 59.1875 C8.32253038 61.44418692 9.06305895 61.37568083 12.9375 60.9375 C13.80375 60.84984375 14.67 60.7621875 15.5625 60.671875 C18.19017134 60.29150362 18.19017134 60.29150362 20.9375 58.1875 C20.9375 57.5275 20.9375 56.8675 20.9375 56.1875 C21.5975 55.8575 22.2575 55.5275 22.9375 55.1875 C24.52636496 50.25277126 25.4176316 45.74086693 23.875 40.75 C21.22374852 37.2435061 18.81742303 34.7811599 14.5625 33.4375 C11.34604041 33.13117052 8.16689522 33.17237403 4.9375 33.1875 Z " fill="#0F3F43" transform="translate(185.0625,74.8125)"/>
<path d="M0 0 C2.79340157 0.25390222 2.79340157 0.25390222 5 0 C6.32594359 5.96674616 6.0884587 11.92583615 6 18 C4.35 18.33 2.7 18.66 1 19 C0.63720544 17.71073008 0.28503302 16.41846728 -0.0625 15.125 C-0.25972656 14.40570313 -0.45695312 13.68640625 -0.66015625 12.9453125 C-1 11 -1 11 0 9 C-0.99 8.67 -1.98 8.34 -3 8 C-3.33 7.34 -3.66 6.68 -4 6 C-7.58476479 2.41523521 -11.15348891 2.40387592 -16 2 C-16.33 2.66 -16.66 3.32 -17 4 C-17.86625 4.94875 -18.7325 5.8975 -19.625 6.875 C-22.16128135 9.61299926 -22.16128135 9.61299926 -22.125 12 C-20.02322722 15.73648495 -17.80171168 19.31827126 -13.6875 20.875 C-13.130625 20.91625 -12.57375 20.9575 -12 21 C-12 21.66 -12 22.32 -12 23 C-11.01 22.67 -10.02 22.34 -9 22 C-6.73828125 22.99609375 -6.73828125 22.99609375 -4.3125 24.4375 C-3.50425781 24.91058594 -2.69601563 25.38367188 -1.86328125 25.87109375 C-1.24839844 26.24363281 -0.63351563 26.61617187 0 27 C0 27.66 0 28.32 0 29 C0.928125 29.185625 0.928125 29.185625 1.875 29.375 C4 30 4 30 6 32 C6 32.99 6 33.98 6 35 C6.99 35.495 6.99 35.495 8 36 C10.62570502 41.83490005 10.97903925 48.00169231 9 54.0625 C8.67 54.701875 8.34 55.34125 8 56 C7.34 56 6.68 56 6 56 C5.67 57.32 5.34 58.64 5 60 C4.01 60 3.02 60 2 60 C2 60.66 2 61.32 2 62 C0.33333333 62.66666667 -1.33333333 63.33333333 -3 64 C-4.14855469 64.51626953 -4.14855469 64.51626953 -5.3203125 65.04296875 C-11.01262766 67.07593845 -17.25644607 66.98271106 -22.93359375 64.94921875 C-26.36796481 63.25944837 -29.2842039 61.7157961 -32 59 C-32.1953125 55.7421875 -32.1953125 55.7421875 -32.125 51.875 C-32.10695313 50.59367187 -32.08890625 49.31234375 -32.0703125 47.9921875 C-32.04710938 47.00476563 -32.02390625 46.01734375 -32 45 C-30.02 44.505 -30.02 44.505 -28 44 C-27.68546875 44.75925781 -27.3709375 45.51851562 -27.046875 46.30078125 C-26.40492187 47.79158203 -26.40492187 47.79158203 -25.75 49.3125 C-25.33234375 50.29863281 -24.9146875 51.28476563 -24.484375 52.30078125 C-22.94130606 55.10673029 -21.58241462 56.20665651 -19 58 C-19 58.66 -19 59.32 -19 60 C-18.2575 59.7525 -18.2575 59.7525 -17.5 59.5 C-15.11730318 59.02346064 -13.39911141 59.08886565 -11 59.25 C-7.76858859 59.26808626 -7.19116327 59.14815154 -4.5 57.0625 C-2.45062412 52.87835758 -1.86000345 49.55998619 -3 45 C-6.75674946 38.93319963 -12.28499115 36.59881163 -19 35 C-19 34.34 -19 33.68 -19 33 C-20.98 32.67 -22.96 32.34 -25 32 C-25 31.34 -25 30.68 -25 30 C-25.66 30 -26.32 30 -27 30 C-31.19070258 25.54737851 -32.8241635 21.50567007 -33.25 15.4375 C-33.01172763 12.16125491 -32.42242966 9.93376117 -31 7 C-30.34 7 -29.68 7 -29 7 C-29 6.01 -29 5.02 -29 4 C-28.34 4 -27.68 4 -27 4 C-26.67 3.01 -26.34 2.02 -26 1 C-18.10894741 -5.30862226 -8.50246152 -4.08118153 0 0 Z " fill="#10464C" transform="translate(61,77)"/>
<path d="M0 0 C2.88211422 2.05865301 5.18334468 4.31126191 7.625 6.875 C8.49511719 7.58269531 9.36523438 8.29039063 10.26171875 9.01953125 C13.43181733 12.84984871 13.21603057 15.39248911 12.9375 20.1875 C12.91494141 20.92806641 12.89238281 21.66863281 12.86914062 22.43164062 C12.8105815 24.24697357 12.72090886 26.06125681 12.625 27.875 C16.255 27.875 19.885 27.875 23.625 27.875 C23.893125 26.905625 24.16125 25.93625 24.4375 24.9375 C24.829375 23.926875 25.22125 22.91625 25.625 21.875 C26.615 21.545 27.605 21.215 28.625 20.875 C28.625 27.475 28.625 34.075 28.625 40.875 C27.305 40.545 25.985 40.215 24.625 39.875 C23.375 37.3125 23.375 37.3125 22.625 34.875 C19.325 34.875 16.025 34.875 12.625 34.875 C12.955 43.125 13.285 51.375 13.625 59.875 C25.8504944 60.10681973 25.8504944 60.10681973 34.625 53.875 C34.955 52.885 35.285 51.895 35.625 50.875 C36.945 51.205 38.265 51.535 39.625 51.875 C39.34361942 54.16795236 39.0495814 56.45935456 38.75 58.75 C38.58757812 60.02617187 38.42515625 61.30234375 38.2578125 62.6171875 C37.625 65.875 37.625 65.875 35.625 67.875 C32.53975061 68.05053419 29.54535798 68.10622797 26.4609375 68.0703125 C25.10012558 68.06606766 25.10012558 68.06606766 23.71182251 68.06173706 C20.80774877 68.05052153 17.90398088 68.02541463 15 68 C13.03385861 67.98997197 11.0677124 67.98084581 9.1015625 67.97265625 C4.27592341 67.95057772 -0.5494864 67.91603865 -5.375 67.875 C-5.705 66.555 -6.035 65.235 -6.375 63.875 C-4.725 63.215 -3.075 62.555 -1.375 61.875 C-1.705 43.065 -2.035 24.255 -2.375 4.875 C-3.695 4.545 -5.015 4.215 -6.375 3.875 C-6.0625 1.9375 -6.0625 1.9375 -5.375 -0.125 C-2.375 -1.125 -2.375 -1.125 0 0 Z " fill="#0F4145" transform="translate(131.375,75.125)"/>
<path d="M0 0 C0.66 0 1.32 0 2 0 C4.79845727 5.34250933 7 9.90420047 7 16 C7.66 16 8.32 16 9 16 C9.12375 16.7425 9.2475 17.485 9.375 18.25 C9.86889456 20.97537272 9.86889456 20.97537272 11.125 23.125 C12 25 12 25 11 28 C11.66 28 12.32 28 13 28 C14.58255197 32.32564205 15.45144652 36.428721 16 41 C16.66 41 17.32 41 18 41 C21 50 21 50 20 53 C20.66 53 21.32 53 22 53 C22.309375 53.94875 22.61875 54.8975 22.9375 55.875 C24.0727287 59.79144911 24.0727287 59.79144911 27.0625 62.125 C27.701875 62.41375 28.34125 62.7025 29 63 C29 64.32 29 65.64 29 67 C22.73 67.33 16.46 67.66 10 68 C9.34 66.68 8.68 65.36 8 64 C9.32 63.01 10.64 62.02 12 61 C11.71125 60.29875 11.4225 59.5975 11.125 58.875 C9.37276318 54.39706145 8 50.85344825 8 46 C2.06 46.33 -3.88 46.66 -10 47 C-13.54914983 54.42517702 -13.54914983 54.42517702 -13 62 C-11.0162233 63.28436734 -11.0162233 63.28436734 -9 64 C-9 64.66 -9 65.32 -9 66 C-12.68087353 68.45391569 -15.44355588 68.22802759 -19.6875 68.125 C-20.38939453 68.11597656 -21.09128906 68.10695313 -21.81445312 68.09765625 C-23.54311525 68.07413704 -25.27160145 68.03826713 -27 68 C-27 67.34 -27 66.68 -27 66 C-27.66 66 -28.32 66 -29 66 C-29 65.34 -29 64.68 -29 64 C-27.20963542 63.05598958 -25.41927083 62.11197917 -23.62890625 61.16796875 C-21.67732013 60.00980201 -21.67732013 60.00980201 -21 57 C-20.34 57 -19.68 57 -19 57 C-19.20625 56.4225 -19.4125 55.845 -19.625 55.25 C-20.10495426 52.37027447 -19.46780864 51.49527469 -18 49 C-16.009563 45.25797843 -14.77073593 42.14270565 -14 38 C-13.2920405 35.71926819 -12.52811921 33.46218116 -11.75390625 31.203125 C-11.14211921 29.4153121 -10.56563064 27.61544767 -10 25.8125 C-9 23 -9 23 -7.4375 19.9375 C-6.0667285 17.13635824 -5.56477311 15.03565548 -5 12 C-3.71483797 7.65199672 -2.52780219 3.79170329 0 0 Z M-3 21 C-2.67 21.99 -2.34 22.98 -2 24 C-2 23.01 -2 22.02 -2 21 C-2.33 21 -2.66 21 -3 21 Z M-3 24 C-4.56272189 28.39253773 -4.56272189 28.39253773 -5 33 C-5.66 33 -6.32 33 -7 33 C-7.38218767 34.65614657 -7.71395102 36.32457024 -8 38 C-6.94021067 39.28612676 -6.94021067 39.28612676 -4.49609375 39.09765625 C-3.48675781 39.08605469 -2.47742188 39.07445312 -1.4375 39.0625 C-0.42558594 39.05347656 0.58632812 39.04445313 1.62890625 39.03515625 C2.41136719 39.02355469 3.19382812 39.01195312 4 39 C3.3767285 35.68372521 2.63041093 32.47163932 1.625 29.25 C1.39039063 28.47140625 1.15578125 27.6928125 0.9140625 26.890625 C0.61242187 26.26671875 0.31078125 25.6428125 0 25 C-0.99 24.67 -1.98 24.34 -3 24 Z " fill="#11444A" transform="translate(246,75)"/>
<path d="M0 0 C0.78246094 -0.01417969 1.56492187 -0.02835938 2.37109375 -0.04296875 C4.5625 0.1875 4.5625 0.1875 7.5625 2.1875 C7.5625 2.8475 7.5625 3.5075 7.5625 4.1875 C6.9025 4.1875 6.2425 4.1875 5.5625 4.1875 C4.97845962 10.06390416 4.97845962 10.06390416 7 15.375 C10.80291769 18.06486861 14.65596046 20.65056086 18.5625 23.1875 C20.64700691 24.58158013 22.7303057 25.97746811 24.8125 27.375 C28.34564934 29.74445333 31.90800735 32.01074683 35.5625 34.1875 C37.0475 35.1775 37.0475 35.1775 38.5625 36.1875 C38.5625 37.1775 38.5625 38.1675 38.5625 39.1875 C34.4145642 40.32779969 31.57299663 39.96847091 27.4375 38.875 C26.40367187 38.61074219 25.36984375 38.34648438 24.3046875 38.07421875 C21.5625 37.1875 21.5625 37.1875 18.5625 35.1875 C18.5625 34.5275 18.5625 33.8675 18.5625 33.1875 C17.634375 32.919375 16.70625 32.65125 15.75 32.375 C11.20826922 30.68298265 9.83372251 28.74052349 7.5625 24.625 C5.8118071 21.03576364 5.8118071 21.03576364 2.5625 19.1875 C0.48794019 18.62772152 0.48794019 18.62772152 -1.75 18.25 C-4.84188651 17.628616 -6.83133453 16.98300899 -9.6875 15.5 C-12.91439196 13.95989248 -14.09318706 14.13140118 -17.4375 15.1875 C-18.200625 15.373125 -18.96375 15.55875 -19.75 15.75 C-20.306875 15.894375 -20.86375 16.03875 -21.4375 16.1875 C-21.4375 16.8475 -21.4375 17.5075 -21.4375 18.1875 C-22.02917969 18.21328125 -22.62085938 18.2390625 -23.23046875 18.265625 C-28.45210645 18.64042444 -31.74059802 19.15451602 -35.4375 23.1875 C-36.11099161 24.85142045 -36.7784159 26.51782028 -37.4375 28.1875 C-39.375 29.3125 -39.375 29.3125 -41.4375 30.1875 C-41.97375 30.72375 -42.51 31.26 -43.0625 31.8125 C-43.51625 32.26625 -43.97 32.72 -44.4375 33.1875 C-45.0975 33.1875 -45.7575 33.1875 -46.4375 33.1875 C-46.7675 33.8475 -47.0975 34.5075 -47.4375 35.1875 C-51.45359378 38.42628531 -55.26248512 38.66373594 -60.23046875 38.9765625 C-62.47798339 39.05770518 -62.47798339 39.05770518 -64.4375 40.1875 C-65.0975 39.8575 -65.7575 39.5275 -66.4375 39.1875 C-66.3125 37.3125 -66.3125 37.3125 -65.4375 35.1875 C-62.4375 34.0625 -62.4375 34.0625 -59.4375 33.1875 C-59.1075 32.5275 -58.7775 31.8675 -58.4375 31.1875 C-52.8422619 26.1875 -52.8422619 26.1875 -50.4375 26.1875 C-49.43452825 25.19048061 -48.43518251 24.18981213 -47.4375 23.1875 C-45.81819657 22.12508556 -44.16951519 21.10662472 -42.5 20.125 C-41.64535156 19.61839844 -40.79070312 19.11179687 -39.91015625 18.58984375 C-37.4375 17.1875 -37.4375 17.1875 -35.18359375 16.12890625 C-33.25731881 15.30635182 -33.25731881 15.30635182 -32.4375 13.1875 C-31.4475 13.1875 -30.4575 13.1875 -29.4375 13.1875 C-29.4375 12.5275 -29.4375 11.8675 -29.4375 11.1875 C-22.6875 7.1875 -22.6875 7.1875 -20.4375 7.1875 C-20.1075 6.5275 -19.7775 5.8675 -19.4375 5.1875 C-16.875 3.25 -16.875 3.25 -13.4375 2.1875 C-10.45882633 3.44955922 -7.98182887 5.20498994 -5.4375 7.1875 C-5.1075 6.5275 -4.7775 5.8675 -4.4375 5.1875 C-5.0975 5.1875 -5.7575 5.1875 -6.4375 5.1875 C-6.4375 3.8675 -6.4375 2.5475 -6.4375 1.1875 C-4.0978331 0.01766655 -2.60358473 0.0213759 0 0 Z " fill="#144C55" transform="translate(164.4375,33.8125)"/>
<path d="M0 0 C5.32422883 3.5117254 8.48864777 6.61523573 9.9375 12.9375 C10.22177915 16.91740811 10.11465896 20.3483354 7.6875 23.625 C5.49622304 25.26845772 3.62424602 25.57442621 0.9375 25.9375 C0.2775 27.9175 -0.3825 29.8975 -1.0625 31.9375 C-6.6725 31.2775 -12.2825 30.6175 -18.0625 29.9375 C-17.0725 28.4525 -17.0725 28.4525 -16.0625 26.9375 C-14.06129564 26.61984851 -12.05519904 26.3070203 -10.03515625 26.1484375 C-7.85212375 25.98602286 -7.85212375 25.98602286 -5.0625 24.9375 C-4.46188767 23.03571215 -4.46188767 23.03571215 -4.0625 20.9375 C-3.4025 19.9475 -2.7425 18.9575 -2.0625 17.9375 C-2.28249121 12.21772855 -3.98168663 8.60539904 -7.0625 3.9375 C-7.7225 3.6075 -8.3825 3.2775 -9.0625 2.9375 C-9.0625 2.2775 -9.0625 1.6175 -9.0625 0.9375 C-5.47235641 -0.68661258 -3.79197281 -1.3155824 0 0 Z " fill="#134F57" transform="translate(207.0625,77.0625)"/>
<path d="M0 0 C0.33 0 0.66 0 1 0 C0.9175 1.2375 0.835 2.475 0.75 3.75 C0.77522966 6.62618151 0.79432017 7.69595155 2.4375 10.125 C6.20930621 12.88485821 10.08088921 15.45489699 14 18 C16.08450691 19.39408013 18.1678057 20.78996811 20.25 22.1875 C23.78314934 24.55695333 27.34550735 26.82324683 31 29 C31.99 29.66 32.98 30.32 34 31 C34 31.99 34 32.98 34 34 C29.8520642 35.14029969 27.01049663 34.78097091 22.875 33.6875 C21.84117187 33.42324219 20.80734375 33.15898438 19.7421875 32.88671875 C17 32 17 32 14 30 C14 29.34 14 28.68 14 28 C13.071875 27.731875 12.14375 27.46375 11.1875 27.1875 C5.48972847 25.0648008 3.71025711 21.23359994 1 16 C1 15.01 1 14.02 1 13 C0.34 12.67 -0.32 12.34 -1 12 C-1.02687279 10.18757948 -1.04633715 8.37504767 -1.0625 6.5625 C-1.07410156 5.55316406 -1.08570313 4.54382812 -1.09765625 3.50390625 C-1 1 -1 1 0 0 Z " fill="#15494F" transform="translate(169,39)"/>
<path d="M0 0 C5.94 0 11.88 0 18 0 C18 0.66 18 1.32 18 2 C9.585 2.495 9.585 2.495 1 3 C0.525625 4.258125 0.05125 5.51625 -0.4375 6.8125 C-0.70433594 7.52019531 -0.97117188 8.22789063 -1.24609375 8.95703125 C-3.00271828 13.46122926 -3.00271828 13.46122926 -2 18 C-0.0162233 19.28436734 -0.0162233 19.28436734 2 20 C2 20.66 2 21.32 2 22 C-1.68087353 24.45391569 -4.44355588 24.22802759 -8.6875 24.125 C-9.38939453 24.11597656 -10.09128906 24.10695312 -10.81445312 24.09765625 C-12.54311525 24.07413704 -14.27160145 24.03826713 -16 24 C-16 23.34 -16 22.68 -16 22 C-16.66 22 -17.32 22 -18 22 C-18 21.34 -18 20.68 -18 20 C-16.20963542 19.05598958 -14.41927083 18.11197917 -12.62890625 17.16796875 C-10.67732013 16.00980201 -10.67732013 16.00980201 -10 13 C-9.34 13 -8.68 13 -8 13 C-8.20625 12.4225 -8.4125 11.845 -8.625 11.25 C-9.09828535 8.41028792 -8.44941679 7.44112301 -7 5 C-6.443125 3.88625 -6.443125 3.88625 -5.875 2.75 C-5.58625 2.1725 -5.2975 1.595 -5 1 C-4.67 1.66 -4.34 2.32 -4 3 C-2.68 2.67 -1.36 2.34 0 2 C0 1.34 0 0.68 0 0 Z " fill="#0B3436" transform="translate(235,119)"/>
<path d="M0 0 C1.32 0 2.64 0 4 0 C4.84026396 1.76755526 5.67198722 3.53917263 6.5 5.3125 C6.9640625 6.29863281 7.428125 7.28476563 7.90625 8.30078125 C9 11 9 11 9 14 C9.66 14 10.32 14 11 14 C11.0825 13.360625 11.165 12.72125 11.25 12.0625 C12.29520372 7.79458483 14.14091826 3.96892333 16 0 C17.32 0 18.64 0 20 0 C20 6.27 20 12.54 20 19 C19.01 19 18.02 19 17 19 C16.67 15.04 16.34 11.08 16 7 C14.68 10.3 13.36 13.6 12 17 C10.68 17 9.36 17 8 17 C6.68 14.03 5.36 11.06 4 8 C3.67 11.63 3.34 15.26 3 19 C2.01 19 1.02 19 0 19 C0 12.73 0 6.46 0 0 Z " fill="#356461" transform="translate(109,159)"/>
<path d="M0 0 C6.93 0 13.86 0 21 0 C21 1.65 21 3.3 21 5 C20.01 5.33 19.02 5.66 18 6 C16.77215191 7.00559794 16.77215191 7.00559794 16.88647461 9.04125977 C16.89432983 10.35308228 16.89432983 10.35308228 16.90234375 11.69140625 C16.90717773 13.10776367 16.90717773 13.10776367 16.91210938 14.55273438 C16.92048828 15.54595703 16.92886719 16.53917969 16.9375 17.5625 C16.94201172 18.55958984 16.94652344 19.55667969 16.95117188 20.58398438 C16.96299977 23.05601487 16.98093585 25.52801472 17 28 C22.94 28 28.88 28 35 28 C34.67 20.41 34.34 12.82 34 5 C32.68 4.67 31.36 4.34 30 4 C30.33 2.68 30.66 1.36 31 0 C37.6 0 44.2 0 51 0 C51 0.33 51 0.66 51 1 C50.31292969 1.04898438 49.62585938 1.09796875 48.91796875 1.1484375 C47.56638672 1.26058594 47.56638672 1.26058594 46.1875 1.375 C45.29417969 1.44460937 44.40085938 1.51421875 43.48046875 1.5859375 C40.75601501 1.86645036 40.75601501 1.86645036 38 4 C37.34 4 36.68 4 36 4 C36 12.25 36 20.5 36 29 C29.07 29 22.14 29 15 29 C14.80628899 24.68769493 14.61973064 20.37529192 14.4375 16.0625 C14.38142578 14.83080078 14.32535156 13.59910156 14.26757812 12.33007812 C14.21923828 11.16025391 14.17089844 9.99042969 14.12109375 8.78515625 C14.0739624 7.70113525 14.02683105 6.61711426 13.97827148 5.50024414 C14 3 14 3 15 2 C10.05 1.67 5.1 1.34 0 1 C0 0.67 0 0.34 0 0 Z " fill="#133539" transform="translate(72,75)"/>
<path d="M0 0 C0.33 0 0.66 0 1 0 C2.00857511 4.39188616 2.87589868 8.28146461 0.765625 12.421875 C-0.32553927 13.9287209 -1.43499507 15.42249353 -2.5625 16.90234375 C-5.45043626 21.11653334 -5.14962104 26.06250554 -5 31 C-5.99 31.33 -6.98 31.66 -8 32 C-8.33 29.69 -8.66 27.38 -9 25 C-10.32 25 -11.64 25 -13 25 C-13.33 26.32 -13.66 27.64 -14 29 C-14.66 29 -15.32 29 -16 29 C-16.2475 29.639375 -16.495 30.27875 -16.75 30.9375 C-18 33 -18 33 -20.0625 33.625 C-20.701875 33.74875 -21.34125 33.8725 -22 34 C-22.33 34.66 -22.66 35.32 -23 36 C-24.37562854 34.71034824 -25.70766393 33.37310707 -27 32 C-27 31.34 -27 30.68 -27 30 C-27.66 30 -28.32 30 -29 30 C-30.2890625 28.46875 -30.2890625 28.46875 -31.625 26.5 C-32.07101563 25.8503125 -32.51703125 25.200625 -32.9765625 24.53125 C-33.31429687 24.0259375 -33.65203125 23.520625 -34 23 C-30.08158173 24.30613942 -27.67359191 25.83129848 -25 29 C-25 29.66 -25 30.32 -25 31 C-24.236875 30.67 -23.47375 30.34 -22.6875 30 C-20 29 -20 29 -17 29 C-16.773125 28.278125 -16.54625 27.55625 -16.3125 26.8125 C-14.73664872 23.43567583 -12.79123384 21.44232961 -10 19 C-9.34 19 -8.68 19 -8 19 C-8 18.34 -8 17.68 -8 17 C-7.236875 16.38125 -6.47375 15.7625 -5.6875 15.125 C-1.53090082 11.23999679 -1.05112973 5.35819788 0 0 Z " fill="#971721" transform="translate(173,59)"/>
<path d="M0 0 C0.99 0 1.98 0 3 0 C3.31453125 0.75925781 3.6290625 1.51851563 3.953125 2.30078125 C4.38109375 3.29464844 4.8090625 4.28851563 5.25 5.3125 C5.66765625 6.29863281 6.0853125 7.28476563 6.515625 8.30078125 C8.05869394 11.10673029 9.41758538 12.20665651 12 14 C12 14.66 12 15.32 12 16 C12.515625 15.835 13.03125 15.67 13.5625 15.5 C16.73363876 14.84951 19.77218334 14.9379266 23 15 C22.67 15.66 22.34 16.32 22 17 C19.67711188 17.39310414 17.38154824 17.50749695 15.03125 17.65625 C14.3609375 17.7696875 13.690625 17.883125 13 18 C12.67 18.66 12.34 19.32 12 20 C12.66 20.33 13.32 20.66 14 21 C8.82666872 21 5.32117189 19.22449032 0.80078125 16.83984375 C-1 15 -1 15 -1.42578125 11.6796875 C-1.38839844 10.42414063 -1.35101562 9.16859375 -1.3125 7.875 C-1.28800781 6.61429687 -1.26351563 5.35359375 -1.23828125 4.0546875 C-1 1 -1 1 0 0 Z " fill="#0F3233" transform="translate(30,121)"/>
<path d="M0 0 C1.588125 -0.061875 3.17625 -0.12375 4.8125 -0.1875 C6.15248047 -0.23970703 6.15248047 -0.23970703 7.51953125 -0.29296875 C10 0 10 0 11.80078125 1.35546875 C13.50731102 3.69569361 13.42408618 5.1727588 13 8 C11.5 9.8125 11.5 9.8125 10 11 C10.66 13.31 11.32 15.62 12 18 C10.125 17.875 10.125 17.875 8 17 C6.75 13.9375 6.75 13.9375 6 11 C4.68 11 3.36 11 2 11 C2 13.31 2 15.62 2 18 C1.34 18 0.68 18 0 18 C0 12.06 0 6.12 0 0 Z " fill="#235250" transform="translate(216,159)"/>
<path d="M0 0 C3.375 0.875 3.375 0.875 5.375 2.875 C5.92739643 9.83519496 5.92739643 9.83519496 4.3125 12.875 C1.20632725 14.47818593 -1.20490979 14.30251128 -4.625 13.875 C-7.25041413 11.67303976 -7.5695448 10.25526421 -8.0625 6.875 C-7.625 3.875 -7.625 3.875 -6.0625 1.4375 C-3.625 -0.125 -3.625 -0.125 0 0 Z " fill="#DCCCA5" transform="translate(89.625,161.125)"/>
<path d="M0 0 C0.99 0 1.98 0 3 0 C4.17094005 2.7899439 5.33690927 5.58178597 6.5 8.375 C6.83386719 9.1690625 7.16773438 9.963125 7.51171875 10.78125 C7.82753906 11.54179687 8.14335937 12.30234375 8.46875 13.0859375 C8.76201172 13.7876709 9.05527344 14.4894043 9.35742188 15.21240234 C10 17 10 17 10 19 C9.01 19 8.02 19 7 19 C6.67 17.35 6.34 15.7 6 14 C4.54052295 14.06006078 3.08220728 14.1488689 1.625 14.25 C0.81289062 14.29640625 0.00078125 14.3428125 -0.8359375 14.390625 C-3.18838927 14.7922092 -3.18838927 14.7922092 -4.2890625 17.046875 C-4.52367187 17.69140625 -4.75828125 18.3359375 -5 19 C-5.66 19 -6.32 19 -7 19 C-6.41249992 14.5470164 -5.26681981 10.81179158 -3.5 6.6875 C-3.0565625 5.63949219 -2.613125 4.59148437 -2.15625 3.51171875 C-1 1 -1 1 0 0 Z " fill="#355F5C" transform="translate(195,159)"/>
<path d="M0 0 C2.16015625 0.58203125 2.16015625 0.58203125 5.22265625 3.14453125 C7.46641334 7.12539061 7.89555678 9.08791691 7.16015625 13.58203125 C5.59774791 16.70684793 4.41500927 18.16062539 1.06640625 19.28515625 C-1.37907089 19.72534213 -3.37269938 19.89427234 -5.83984375 19.58203125 C-9.52707839 16.73978788 -11.5835984 14.46116379 -12.21484375 9.83203125 C-11.81387521 6.35697059 -10.92930459 4.31298908 -8.53125 1.73046875 C-5.75298158 -0.15593059 -3.29047043 -0.23621073 0 0 Z M-8.83984375 6.58203125 C-9.32730983 9.92465577 -9.15549576 11.87645617 -7.77734375 14.95703125 C-5.80762276 16.90753034 -5.80762276 16.90753034 -2.33984375 17.01953125 C0.99834495 16.80658193 0.99834495 16.80658193 3.09765625 15.58203125 C4.81765638 12.34438395 4.8299212 9.15411098 4.16015625 5.58203125 C2.08760182 3.12567044 0.79646591 2.69338544 -2.33984375 2.14453125 C-5.73819098 2.73924201 -6.85225409 3.78468283 -8.83984375 6.58203125 Z " fill="#2F5854" transform="translate(90.83984375,158.41796875)"/>
<path d="M0 0 C3.96 0 7.92 0 12 0 C12 0.66 12 1.32 12 2 C9.03 2 6.06 2 3 2 C3 3.98 3 5.96 3 8 C5.64 8 8.28 8 11 8 C11 8.66 11 9.32 11 10 C8.36 10 5.72 10 3 10 C3 11.98 3 13.96 3 16 C6.3 16 9.6 16 13 16 C13 16.99 13 17.98 13 19 C8.71 19 4.42 19 0 19 C0 12.73 0 6.46 0 0 Z " fill="#38605B" transform="translate(141,159)"/>
<path d="M0 0 C3.96 0 7.92 0 12 0 C12 0.66 12 1.32 12 2 C9.03 2 6.06 2 3 2 C3 3.98 3 5.96 3 8 C5.64 8 8.28 8 11 8 C11 8.66 11 9.32 11 10 C8.36 10 5.72 10 3 10 C3 11.98 3 13.96 3 16 C5.97 16 8.94 16 12 16 C12 16.99 12 17.98 12 19 C8.04 19 4.08 19 0 19 C0 12.73 0 6.46 0 0 Z " fill="#325D5A" transform="translate(240,159)"/>
<path d="M0 0 C0.66 0 1.32 0 2 0 C2 6.6 2 13.2 2 20 C0.68 19.67 -0.64 19.34 -2 19 C-3.3125 16.5625 -3.3125 16.5625 -4 14 C-3.67 13.34 -3.34 12.68 -3 12 C-7.29 12 -11.58 12 -16 12 C-16 11.01 -16 10.02 -16 9 C-9.565 8.505 -9.565 8.505 -3 8 C-2.01 5.36 -1.02 2.72 0 0 Z " fill="#155358" transform="translate(158,96)"/>
<path d="M0 0 C0.33 0 0.66 0 1 0 C1.15373908 7.26683556 1.30192054 14.53376187 1.4429636 21.80085564 C1.50862772 25.17508025 1.57622188 28.5492434 1.64819336 31.92333984 C1.72994239 35.80037657 1.80508895 39.67749267 1.87890625 43.5546875 C1.90594131 44.76929657 1.93297638 45.98390564 1.96083069 47.23532104 C1.98092697 48.35633209 2.00102325 49.47734314 2.02172852 50.63232422 C2.04171402 51.62271698 2.06169952 52.61310974 2.08229065 53.6335144 C2 56 2 56 1 58 C6.28 58.33 11.56 58.66 17 59 C17 59.33 17 59.66 17 60 C10.29980211 60.70132913 3.73742646 61.11044961 -3 61 C-3.33 59.35 -3.66 57.7 -4 56 C-2.68 55.34 -1.36 54.68 0 54 C0 36.18 0 18.36 0 0 Z " fill="#021114" transform="translate(76,82)"/>
<path d="M0 0 C0.66 0 1.32 0 2 0 C2 2.64 2 5.28 2 8 C4.97 8 7.94 8 11 8 C11 5.36 11 2.72 11 0 C11.99 0 12.98 0 14 0 C14 6.27 14 12.54 14 19 C13.01 19 12.02 19 11 19 C11 16.03 11 13.06 11 10 C8.03 10 5.06 10 2 10 C2 12.64 2 15.28 2 18 C1.34 18 0.68 18 0 18 C0 12.06 0 6.12 0 0 Z " fill="#355F5A" transform="translate(55,159)"/>
<path d="M0 0 C0.66 1.32 1.32 2.64 2 4 C1.38511719 3.89300781 0.77023438 3.78601563 0.13671875 3.67578125 C-1.07564453 3.49595703 -1.07564453 3.49595703 -2.3125 3.3125 C-3.11300781 3.18488281 -3.91351563 3.05726563 -4.73828125 2.92578125 C-7.06083366 2.7898054 -7.06083366 2.7898054 -8.7734375 4.29296875 C-10.63213241 6.87975116 -10.32260928 8.90295093 -10 12 C-9.01 13.485 -9.01 13.485 -8 15 C-4.58357241 15.25015873 -4.58357241 15.25015873 -1 15 C0.32 15 1.64 15 3 15 C1 18 1 18 -0.953125 18.7578125 C-6.93613313 19.71427979 -6.93613313 19.71427979 -9.92578125 17.70703125 C-12.52467201 14.89725198 -13.84522431 12.68945533 -14.6875 8.9375 C-12.66019641 0.27538465 -8.01278861 -0.94268101 0 0 Z " fill="#315953" transform="translate(177,159)"/>
<path d="M0 0 C6.6 0 13.2 0 20 0 C20 0.33 20 0.66 20 1 C19.31292969 1.04898438 18.62585938 1.09796875 17.91796875 1.1484375 C16.56638672 1.26058594 16.56638672 1.26058594 15.1875 1.375 C14.29417969 1.44460937 13.40085937 1.51421875 12.48046875 1.5859375 C9.75601501 1.86645036 9.75601501 1.86645036 7 4 C6.34 4 5.68 4 5 4 C5 12.25 5 20.5 5 29 C-1.27 29 -7.54 29 -14 29 C-14 28.67 -14 28.34 -14 28 C-8.06 28 -2.12 28 4 28 C3.505 16.615 3.505 16.615 3 5 C1.68 4.67 0.36 4.34 -1 4 C-0.67 2.68 -0.34 1.36 0 0 Z " fill="#061B1E" transform="translate(103,75)"/>
<path d="M0 0 C1.32 0 2.64 0 4 0 C4 6.27 4 12.54 4 19 C3.01 19 2.02 19 1 19 C0.67 15.04 0.34 11.08 0 7 C-0.66 7.99 -1.32 8.98 -2 10 C-2.6875 8.375 -2.6875 8.375 -3 6 C-1.5625 2.75 -1.5625 2.75 0 0 Z " fill="#4F746A" transform="translate(125,159)"/>
<path d="M0 0 C0.33 0 0.66 0 1 0 C1.33 8.25 1.66 16.5 2 25 C5.96 25 9.92 25 14 25 C15.32 25 16.64 25 18 25 C17.67 25.66 17.34 26.32 17 27 C14.37493198 27.02690844 11.75013827 27.04679404 9.125 27.0625 C8.37863281 27.07087891 7.63226563 27.07925781 6.86328125 27.08789062 C1.2265625 27.11328125 1.2265625 27.11328125 -1 26 C-1.02886751 21.85418113 -1.04675327 17.70838784 -1.0625 13.5625 C-1.07087891 12.37849609 -1.07925781 11.19449219 -1.08789062 9.97460938 C-1.09111328 8.84990234 -1.09433594 7.72519531 -1.09765625 6.56640625 C-1.10289307 5.52427979 -1.10812988 4.48215332 -1.11352539 3.40844727 C-1 1 -1 1 0 0 Z " fill="#042225" transform="translate(143,110)"/>
<path d="M0 0 C10.15317287 -0.63019694 10.15317287 -0.63019694 13.6875 2 C14.120625 2.66 14.55375 3.32 15 4 C14.01 4 13.02 4 12 4 C12.66 5.65 13.32 7.3 14 9 C13.44828125 8.51917969 12.8965625 8.03835937 12.328125 7.54296875 C9.63856507 5.76045839 7.94178582 5.52248591 4.75 5.3125 C3.85796875 5.24675781 2.9659375 5.18101563 2.046875 5.11328125 C1.37140625 5.07589844 0.6959375 5.03851563 0 5 C0 3.35 0 1.7 0 0 Z " fill="#10414F" transform="translate(43,74)"/>
<path d="M0 0 C3.91841827 1.30613942 6.32640809 2.83129848 9 6 C9 6.66 9 7.32 9 8 C9.763125 7.67 10.52625 7.34 11.3125 7 C14 6 14 6 17 6 C17 5.34 17 4.68 17 4 C18.32 4.33 19.64 4.66 21 5 C20.01 5.33 19.02 5.66 18 6 C17.690625 6.66 17.38125 7.32 17.0625 8 C16.5365625 8.99 16.5365625 8.99 16 10 C13.9375 10.625 13.9375 10.625 12 11 C11.67 11.66 11.34 12.32 11 13 C9.62437146 11.71034824 8.29233607 10.37310707 7 9 C7 8.34 7 7.68 7 7 C6.34 7 5.68 7 5 7 C3.7109375 5.46875 3.7109375 5.46875 2.375 3.5 C1.70597656 2.52546875 1.70597656 2.52546875 1.0234375 1.53125 C0.68570313 1.0259375 0.34796875 0.520625 0 0 Z " fill="#890F17" transform="translate(139,82)"/>
<path d="M0 0 C0.74334595 0.02361099 1.48669189 0.04722198 2.25256348 0.07154846 C4.5956974 0.1473051 6.93842434 0.23169964 9.28125 0.31640625 C10.88279347 0.36971542 12.48435601 0.42245498 14.0859375 0.47460938 C17.98462615 0.60279878 21.88297474 0.73872854 25.78125 0.87890625 C25.45125 1.53890625 25.12125 2.19890625 24.78125 2.87890625 C11.25125 2.87890625 -2.27875 2.87890625 -16.21875 2.87890625 C-16.21875 2.21890625 -16.21875 1.55890625 -16.21875 0.87890625 C-10.7236781 0.07888843 -5.54189524 -0.21329956 0 0 Z " fill="#001125" transform="translate(142.21875,140.12109375)"/>
<path d="M0 0 C5.75 -0.125 5.75 -0.125 8 1 C8.042721 2.66611905 8.04063832 4.33382885 8 6 C7 7 7 7 3.4375 7.0625 C2.303125 7.041875 1.16875 7.02125 0 7 C0 4.69 0 2.38 0 0 Z " fill="#C2BFA2" transform="translate(218,161)"/>
<path d="M0 0 C2.5 1.375 2.5 1.375 5 3 C5 3.66 5 4.32 5 5 C5.515625 4.835 6.03125 4.67 6.5625 4.5 C9.73363876 3.84951 12.77218334 3.9379266 16 4 C15.67 4.66 15.34 5.32 15 6 C12.67711188 6.39310414 10.38154824 6.50749695 8.03125 6.65625 C7.3609375 6.7696875 6.690625 6.883125 6 7 C5.67 7.66 5.34 8.32 5 9 C5.66 9.33 6.32 9.66 7 10 C3.88742431 10 1.89234315 9.82638376 -1 9 C-0.649375 8.071875 -0.29875 7.14375 0.0625 6.1875 C1.32382628 3.0197047 1.32382628 3.0197047 0 0 Z " fill="#072024" transform="translate(37,132)"/>
<path d="M0 0 C-1 3 -1 3 -3 4 C1.29 4.33 5.58 4.66 10 5 C9.67 5.66 9.34 6.32 9 7 C4.05 7 -0.9 7 -6 7 C-6 6.34 -6 5.68 -6 5 C-6.66 5 -7.32 5 -8 5 C-8 4.34 -8 3.68 -8 3 C-2.25 0 -2.25 0 0 0 Z " fill="#02161F" transform="translate(225,136)"/>
<path d="M0 0 C0.33 0 0.66 0 1 0 C1 3.96 1 7.92 1 12 C-0.65 12.33 -2.3 12.66 -4 13 C-4.66 10.36 -5.32 7.72 -6 5 C-5.01 4.67 -4.02 4.34 -3 4 C-3 4.66 -3 5.32 -3 6 C-2.34 5.67 -1.68 5.34 -1 5 C-0.34444881 2.47266765 -0.34444881 2.47266765 0 0 Z " fill="#0F3239" transform="translate(66,83)"/>
<path d="M0 0 C3.8665284 3.222107 4.88059018 6.14922412 6 11 C5.01 11 4.02 11 3 11 C2.67 9.35 2.34 7.7 2 6 C-1.3 6.33 -4.6 6.66 -8 7 C-7.67 5.68 -7.34 4.36 -7 3 C-4.69 3.33 -2.38 3.66 0 4 C0 2.68 0 1.36 0 0 Z " fill="#2E5B56" transform="translate(199,167)"/>
<path d="M0 0 C3.73833534 3.22270288 5.11666381 6.49636999 7 11 C8.37514541 12.7087646 8.37514541 12.7087646 10 14 C11.37195574 15.29355827 12.71182656 16.62298702 14 18 C14 18.66 14 19.32 14 20 C10.18063472 18.44396229 7.73955562 16.04395069 5 13 C5 12.34 5 11.68 5 11 C4.34 11 3.68 11 3 11 C0.125 4.375 0.125 4.375 -1 1 C-0.67 0.67 -0.34 0.34 0 0 Z " fill="#A01C26" transform="translate(125,62)"/>
<path d="M0 0 C1.60332791 -0.08121924 3.20784026 -0.13929134 4.8125 -0.1875 C6.15248047 -0.23970703 6.15248047 -0.23970703 7.51953125 -0.29296875 C10 0 10 0 11.79296875 1.359375 C13 3 13 3 13.5 5.4375 C12.79971604 9.02645529 10.94700354 10.01077261 8 12 C8.66 9.03 9.32 6.06 10 3 C6.7 2.34 3.4 1.68 0 1 C0 0.67 0 0.34 0 0 Z " fill="#2E5F5E" transform="translate(216,159)"/>
<path d="M0 0 C0.68835938 0.05220703 1.37671875 0.10441406 2.0859375 0.15820312 C3.76612758 0.28655098 5.44564749 0.42362225 7.125 0.5625 C6.795 1.2225 6.465 1.8825 6.125 2.5625 C-0.475 2.5625 -7.075 2.5625 -13.875 2.5625 C-13.875 1.9025 -13.875 1.2425 -13.875 0.5625 C-9.1460653 -0.43190216 -4.78229882 -0.40315891 0 0 Z " fill="#021A1D" transform="translate(116.875,140.4375)"/>
<path d="M0 0 C6.93 0 13.86 0 21 0 C21 1.65 21 3.3 21 5 C19.35 5.33 17.7 5.66 16 6 C15.67 4.68 15.34 3.36 15 2 C10.05 1.67 5.1 1.34 0 1 C0 0.67 0 0.34 0 0 Z " fill="#0B282F" transform="translate(72,75)"/>
<path d="M0 0 C2 1.8125 2 1.8125 4 4 C4 4.99 4 5.98 4 7 C4.66 7 5.32 7 6 7 C6.33 5.35 6.66 3.7 7 2 C7.66 2 8.32 2 9 2 C8.5020163 5.73487777 8.12508244 7.81237635 6 11 C5.01 10.67 4.02 10.34 3 10 C1.25327015 6.5065403 0 3.93154432 0 0 Z " fill="#2D5855" transform="translate(114,166)"/>
<path d="M0 0 C1.48831242 0.00667405 2.97660807 0.01863442 4.46484375 0.03515625 C5.22345703 0.03966797 5.98207031 0.04417969 6.76367188 0.04882812 C8.64326246 0.06064945 10.52281274 0.07858547 12.40234375 0.09765625 C12.07234375 0.75765625 11.74234375 1.41765625 11.40234375 2.09765625 C8.86210371 2.57340063 6.40182911 2.93773172 3.83984375 3.22265625 C3.12892578 3.30902344 2.41800781 3.39539063 1.68554688 3.484375 C-0.07454937 3.69700408 -1.83599789 3.89838322 -3.59765625 4.09765625 C-3.92765625 3.10765625 -4.25765625 2.11765625 -4.59765625 1.09765625 C-3.59765625 0.09765625 -3.59765625 0.09765625 0 0 Z " fill="#184F58" transform="translate(75.59765625,75.90234375)"/>
<path d="M0 0 C1.65 0.33 3.3 0.66 5 1 C5.33 2.32 5.66 3.64 6 5 C2.20431539 5.97798721 -0.5005999 5.92653069 -4.3125 5.0625 C-5.19550781 4.86785156 -6.07851562 4.67320313 -6.98828125 4.47265625 C-7.98408203 4.23869141 -7.98408203 4.23869141 -9 4 C-9 3.67 -9 3.34 -9 3 C-6.03 3 -3.06 3 0 3 C0 2.01 0 1.02 0 0 Z " fill="#09262A" transform="translate(197,68)"/>
<path d="M0 0 C0.66 0.33 1.32 0.66 2 1 C2 1.99 2 2.98 2 4 C2.66 4 3.32 4 4 4 C2.55802132 6.88395737 0.29355765 8.76525152 -2 11 C-2 8.69 -2 6.38 -2 4 C-3.32 3.67 -4.64 3.34 -6 3 C-4.03533587 1.93224776 -2.03144641 0.93446535 0 0 Z " fill="#0E393F" transform="translate(41,75)"/>
<path d="M0 0 C0.66 0 1.32 0 2 0 C2.22786458 2.01822917 2.45572917 4.03645833 2.68359375 6.0546875 C2.91292961 8.07404316 2.91292961 8.07404316 4 10 C3.34 10 2.68 10 2 10 C2 12.64 2 15.28 2 18 C1.34 18 0.68 18 0 18 C0 12.06 0 6.12 0 0 Z " fill="#1B4D4C" transform="translate(55,159)"/>
<path d="M0 0 C0.33 0 0.66 0 1 0 C0.9175 1.2375 0.835 2.475 0.75 3.75 C0.73853427 6.99480273 0.78372495 7.72605161 2.875 10.375 C3.57625 10.91125 4.2775 11.4475 5 12 C5.66 12.66 6.32 13.32 7 14 C6.01 14.33 5.02 14.66 4 15 C3.34 15.66 2.68 16.32 2 17 C1.87625 16.360625 1.7525 15.72125 1.625 15.0625 C1.41875 14.381875 1.2125 13.70125 1 13 C0.34 12.67 -0.32 12.34 -1 12 C-1.02687279 10.18757948 -1.04633715 8.37504767 -1.0625 6.5625 C-1.07410156 5.55316406 -1.08570313 4.54382812 -1.09765625 3.50390625 C-1 1 -1 1 0 0 Z " fill="#0B353D" transform="translate(169,39)"/>
<path d="M0 0 C0 3.63 0 7.26 0 11 C-0.99 11.33 -1.98 11.66 -3 12 C-3.12375 10.865625 -3.2475 9.73125 -3.375 8.5625 C-3.58125 7.386875 -3.7875 6.21125 -4 5 C-4.66 4.67 -5.32 4.34 -6 4 C-2.25 0 -2.25 0 0 0 Z " fill="#14474C" transform="translate(168,79)"/>
<path d="M0 0 C1.65 0.33 3.3 0.66 5 1 C4.319375 1.53625 3.63875 2.0725 2.9375 2.625 C-0.43384168 5.35076561 -3.72065543 8.16483178 -7 11 C-7 9.35 -7 7.7 -7 6 C-6.34 6 -5.68 6 -5 6 C-4.67 5.01 -4.34 4.02 -4 3 C-3.01 2.67 -2.02 2.34 -1 2 C-0.67 1.34 -0.34 0.68 0 0 Z " fill="#BD3F40" transform="translate(157,51)"/>
<path d="M0 0 C1.32 0.66 2.64 1.32 4 2 C2.8803014 3.00593243 1.7540588 4.0045849 0.625 5 C-0.00148437 5.556875 -0.62796875 6.11375 -1.2734375 6.6875 C-3 8 -3 8 -5 8 C-5 8.66 -5 9.32 -5 10 C-5.99 9.67 -6.98 9.34 -8 9 C-7.04882866 7.8274869 -6.08882991 6.66212985 -5.125 5.5 C-4.32449219 4.52546875 -4.32449219 4.52546875 -3.5078125 3.53125 C-2.76144531 2.77328125 -2.76144531 2.77328125 -2 2 C-1.34 2 -0.68 2 0 2 C0 1.34 0 0.68 0 0 Z " fill="#A41A24" transform="translate(165,76)"/>
<path d="M0 0 C2.62386487 3.06117568 3 3.73173127 3 8 C1.02 8 -0.96 8 -3 8 C-2.45276317 4.62537285 -1.9451 2.91765 0 0 Z " fill="#BABA9E" transform="translate(196,163)"/>
<path d="M0 0 C0.66 0 1.32 0 2 0 C2 0.99 2 1.98 2 3 C1 4 0 5 -1 6 C-1.71447643 8.10332891 -1.71447643 8.10332891 -2 10 C-2.66 10 -3.32 10 -4 10 C-4.33 10.66 -4.66 11.32 -5 12 C-5.34934248 9.06552319 -5.51495218 6.85632498 -3.95703125 4.265625 C-2.625 2.625 -2.625 2.625 0 0 Z " fill="#315F5C" transform="translate(84,159)"/>
<path d="M0 0 C1.65322266 0.01740234 1.65322266 0.01740234 3.33984375 0.03515625 C4.99693359 0.04869141 4.99693359 0.04869141 6.6875 0.0625 C7.54214844 0.07410156 8.39679688 0.08570312 9.27734375 0.09765625 C8.94734375 0.75765625 8.61734375 1.41765625 8.27734375 2.09765625 C6.52734375 2.66015625 6.52734375 2.66015625 4.27734375 3.09765625 C3.43171875 3.34515625 2.58609375 3.59265625 1.71484375 3.84765625 C-0.72265625 4.09765625 -0.72265625 4.09765625 -2.53515625 2.66015625 C-2.92703125 2.14453125 -3.31890625 1.62890625 -3.72265625 1.09765625 C-2.72265625 0.09765625 -2.72265625 0.09765625 0 0 Z " fill="#174E56" transform="translate(173.72265625,75.90234375)"/>
<path d="M0 0 C2.3431213 0.25561323 4.67843403 0.59270772 7 1 C7.33 1.66 7.66 2.32 8 3 C7.67 3.66 7.34 4.32 7 5 C4.69 5 2.38 5 0 5 C0 3.35 0 1.7 0 0 Z " fill="#1A525A" transform="translate(43,74)"/>
<path d="M0 0 C3.63 0 7.26 0 11 0 C11 0.66 11 1.32 11 2 C8.03 2 5.06 2 2 2 C2 3.98 2 5.96 2 8 C0.23537317 4.91190305 0 3.76687864 0 0 Z " fill="#265C5E" transform="translate(142,159)"/>
<path d="M0 0 C0 0.33 0 0.66 0 1 C-1.85625 1.1546875 -1.85625 1.1546875 -3.75 1.3125 C-7.38935661 1.7417903 -9.1145152 2.73283337 -12 5 C-14.25 4.6875 -14.25 4.6875 -16 4 C-11.34158975 -1.14031476 -6.42886252 -0.40532233 0 0 Z " fill="#B42E32" transform="translate(145,52)"/>
<path d="M0 0 C3.465 1.485 3.465 1.485 7 3 C7 3.66 7 4.32 7 5 C4.03 5 1.06 5 -2 5 C-1.34 4.01 -0.68 3.02 0 2 C0 1.34 0 0.68 0 0 Z " fill="#0E3537" transform="translate(87,136)"/>
<path d="M0 0 C5.01113235 1.4317521 6.94469549 3.98445693 10 8 C9.01 8.33 8.02 8.66 7 9 C7 8.34 7 7.68 7 7 C6.34 7 5.68 7 5 7 C3.7109375 5.46875 3.7109375 5.46875 2.375 3.5 C1.70597656 2.52546875 1.70597656 2.52546875 1.0234375 1.53125 C0.68570313 1.0259375 0.34796875 0.520625 0 0 Z " fill="#9C1B25" transform="translate(139,82)"/>
<path d="M0 0 C0.99 0.33 1.98 0.66 3 1 C2.67 1.66 2.34 2.32 2 3 C3.65 3.33 5.3 3.66 7 4 C2.38461538 5.53846154 2.38461538 5.53846154 0 6 C-0.66 5.67 -1.32 5.34 -2 5 C-1.125 1.125 -1.125 1.125 0 0 Z " fill="#092B2E" transform="translate(100,68)"/>
<path d="M0 0 C0.99 0 1.98 0 3 0 C3 5.94 3 11.88 3 18 C2.67 18 2.34 18 2 18 C1.93941406 17.03578125 1.87882812 16.0715625 1.81640625 15.078125 C1.73261719 13.81484375 1.64882812 12.5515625 1.5625 11.25 C1.48128906 9.99703125 1.40007812 8.7440625 1.31640625 7.453125 C1.07484478 4.81682447 0.75716066 2.51962706 0 0 Z " fill="#1C5354" transform="translate(125,159)"/>
<path d="M0 0 C2 2 2 2 2.3125 4.8125 C1.96573854 8.34946692 1.14583658 10.19390601 -1 13 C-1.66 13 -2.32 13 -3 13 C-2.690625 12.154375 -2.38125 11.30875 -2.0625 10.4375 C-0.98461179 6.9502146 -0.43418696 3.61822465 0 0 Z " fill="#061C23" transform="translate(209,120)"/>
<path d="M0 0 C1.65 0 3.3 0 5 0 C5 2.31 5 4.62 5 7 C4.34 7 3.68 7 3 7 C3.33 5.68 3.66 4.36 4 3 C2.02 3.99 2.02 3.99 0 5 C0 3.35 0 1.7 0 0 Z " fill="#17545D" transform="translate(34,79)"/>
<path d="M0 0 C0.66 0 1.32 0 2 0 C2 2.97 2 5.94 2 9 C1.01 8.67 0.02 8.34 -1 8 C-1.04241723 5.66705225 -1.04092937 3.33297433 -1 1 C-0.67 0.67 -0.34 0.34 0 0 Z " fill="#18595E" transform="translate(158,96)"/>
<path d="M0 0 C0.66 0 1.32 0 2 0 C3.03789581 1.64333504 4.03567924 3.31243867 5 5 C5.66 5.66 6.32 6.32 7 7 C6.01 7.33 5.02 7.66 4 8 C2 6.25 2 6.25 0 4 C0 2.68 0 1.36 0 0 Z " fill="#26514E" transform="translate(80,169)"/>
<path d="M0 0 C3 1.8125 3 1.8125 6 4 C6 4.99 6 5.98 6 7 C4.02 7 2.04 7 0 7 C0.66 6.34 1.32 5.68 2 5 C1.34 4.67 0.68 4.34 0 4 C0 2.68 0 1.36 0 0 Z " fill="#0A2D2F" transform="translate(269,134)"/>
<path d="M0 0 C0.99 0.33 1.98 0.66 3 1 C2.34 1 1.68 1 1 1 C0.67 2.32 0.34 3.64 0 5 C-0.99 5 -1.98 5 -3 5 C-3 5.66 -3 6.32 -3 7 C-3.99 7.33 -4.98 7.66 -6 8 C-6.33 7.34 -6.66 6.68 -7 6 C-3.25 3 -3.25 3 -1 3 C-0.67 2.01 -0.34 1.02 0 0 Z " fill="#0A232A" transform="translate(66,132)"/>
<path d="M0 0 C0.66 0 1.32 0 2 0 C2.99 1.98 3.98 3.96 5 6 C4.01 6.33 3.02 6.66 2 7 C2 6.01 2 5.02 2 4 C1.01 4.33 0.02 4.66 -1 5 C-1.33 4.01 -1.66 3.02 -2 2 C-1.34 1.34 -0.68 0.68 0 0 Z " fill="#0F3B41" transform="translate(246,75)"/>
<path d="M0 0 C5.66153846 2.33846154 5.66153846 2.33846154 7.375 5.6875 C7.684375 6.8321875 7.684375 6.8321875 8 8 C6.6589523 7.24266726 5.32730219 6.46867264 4 5.6875 C2.88625 5.04361328 2.88625 5.04361328 1.75 4.38671875 C1.1725 3.92910156 0.595 3.47148438 0 3 C0 2.01 0 1.02 0 0 Z " fill="#113B47" transform="translate(152,37)"/>
<path d="M0 0 C2.31 0 4.62 0 7 0 C7.66 1.32 8.32 2.64 9 4 C4.545 3.01 4.545 3.01 0 2 C0 1.34 0 0.68 0 0 Z " fill="#295956" transform="translate(170,159)"/>
<path d="M0 0 C-0.598125 0.268125 -1.19625 0.53625 -1.8125 0.8125 C-4.06604393 2.03585242 -5.42858036 2.97960332 -7 5 C-7.72197162 7.60611077 -7.72197162 7.60611077 -8 10 C-8.33 10 -8.66 10 -9 10 C-9.32523926 6.42236811 -9.42956587 4.60457419 -7.3125 1.625 C-4.61209763 -0.27258004 -3.22939919 -0.35882213 0 0 Z " fill="#BBBCA1" transform="translate(91,161)"/>
<path d="M0 0 C0.66 0 1.32 0 2 0 C2 1.65 2 3.3 2 5 C0.68 5 -0.64 5 -2 5 C-2 2 -2 2 0 0 Z " fill="#145B64" transform="translate(64,83)"/>
<path d="M0 0 C2 1.5625 2 1.5625 4 4 C4.25 7.75 4.25 7.75 4 11 C2.33333333 7.66666667 0.66666667 4.33333333 -1 1 C-0.67 0.67 -0.34 0.34 0 0 Z " fill="#7F1015" transform="translate(125,62)"/>
<path d="M0 0 C0.33 0 0.66 0 1 0 C1.3125 2.25 1.3125 2.25 1 5 C-1.5 7.3125 -1.5 7.3125 -4 9 C-3.35499066 5.51694958 -1.95865224 2.93797836 0 0 Z " fill="#3C6764" transform="translate(228,162)"/>
<path d="M0 0 C1.65 0.33 3.3 0.66 5 1 C5 1.99 5 2.98 5 4 C3.35 4 1.7 4 0 4 C0 2.68 0 1.36 0 0 Z " fill="#153B3E" transform="translate(119,137)"/>
<path d="M0 0 C0.33 0 0.66 0 1 0 C1 2.31 1 4.62 1 7 C-0.32 6.67 -1.64 6.34 -3 6 C-2.67 4.68 -2.34 3.36 -2 2 C-1.34 2 -0.68 2 0 2 C0 1.34 0 0.68 0 0 Z " fill="#124146" transform="translate(159,109)"/>
<path d="M0 0 C3.4375 1.3125 3.4375 1.3125 7 3 C7.33 3.99 7.66 4.98 8 6 C5.21788056 5.62403791 3.4120716 5.32681541 1.1875 3.5625 C0 2 0 2 0 0 Z " fill="#10323E" transform="translate(189,62)"/>
<path d="M0 0 C0.99 1.32 1.98 2.64 3 4 C2.34 4 1.68 4 1 4 C0.67 5.65 0.34 7.3 0 9 C-0.66 8.67 -1.32 8.34 -2 8 C-1.47731534 5.23723823 -0.89130413 2.6739124 0 0 Z " fill="#3A6967" transform="translate(124,160)"/>
<path d="M0 0 C-0.3125 1.875 -0.3125 1.875 -1 4 C-1.99 4.66 -2.98 5.32 -4 6 C-4.66 5.34 -5.32 4.68 -6 4 C-2.25 0 -2.25 0 0 0 Z " fill="#3B6A66" transform="translate(170,159)"/>
<path d="M0 0 C3.35595828 0.59927826 5.37801226 1.84622436 8 4 C7.67 4.66 7.34 5.32 7 6 C3.535 4.02 3.535 4.02 0 2 C0 1.34 0 0.68 0 0 Z " fill="#AD2D35" transform="translate(164,52)"/>
<path d="M0 0 C0.66 0 1.32 0 2 0 C1.45773019 3.79588866 -0.20127563 5.47211993 -3 8 C-1.125 1.125 -1.125 1.125 0 0 Z " fill="#245A65" transform="translate(129,52)"/>
<path d="M0 0 C-0.99 1.485 -0.99 1.485 -2 3 C-4.31 2.67 -6.62 2.34 -9 2 C-9 1.67 -9 1.34 -9 1 C-3.375 -1.125 -3.375 -1.125 0 0 Z " fill="#3D655C" transform="translate(180,174)"/>
<path d="M0 0 C0.99 0 1.98 0 3 0 C3 1.65 3 3.3 3 5 C2.01 5.33 1.02 5.66 0 6 C0 4.02 0 2.04 0 0 Z " fill="#184B4E" transform="translate(30,121)"/>
<path d="M0 0 C2.31 0.66 4.62 1.32 7 2 C5.1875 3.0625 5.1875 3.0625 3 4 C2.01 3.67 1.02 3.34 0 3 C0 2.01 0 1.02 0 0 Z " fill="#155763" transform="translate(125,76)"/>
<path d="M0 0 C2.64 0 5.28 0 8 0 C7.67 0.66 7.34 1.32 7 2 C4.35139573 2.59355614 1.70802678 2.74209269 -1 3 C-0.67 2.01 -0.34 1.02 0 0 Z " fill="#196A72" transform="translate(73,77)"/>
<path d="" fill="#000000" transform="translate(0,0)"/>
<path d="" fill="#000000" transform="translate(0,0)"/>
<path d="" fill="#000000" transform="translate(0,0)"/>
<path d="M0 0 C2 1 2 1 2 1 Z " fill="#000000" transform="translate(51,80)"/>
<path d="" fill="#000000" transform="translate(0,0)"/>
<path d="" fill="#000000" transform="translate(0,0)"/>
<path d="" fill="#000000" transform="translate(0,0)"/>
<path d="" fill="#000000" transform="translate(0,0)"/>
<path d="" fill="#000000" transform="translate(0,0)"/>
<path d="" fill="#000000" transform="translate(0,0)"/>
<path d="" fill="#000000" transform="translate(0,0)"/>
<path d="" fill="#000000" transform="translate(0,0)"/>
<path d="" fill="#000000" transform="translate(0,0)"/>
<path d="" fill="#000000" transform="translate(0,0)"/>
<path d="" fill="#000000" transform="translate(0,0)"/>
<path d="" fill="#000000" transform="translate(0,0)"/>
<path d="" fill="#000000" transform="translate(0,0)"/>
<path d="" fill="#000000" transform="translate(0,0)"/>
<path d="" fill="#000000" transform="translate(0,0)"/>
<path d="" fill="#000000" transform="translate(0,0)"/>
<path d="" fill="#000000" transform="translate(0,0)"/>
<path d="" fill="#000000" transform="translate(0,0)"/>
<path d="" fill="#FF0000" transform="translate(0,0)"/>
<path d="" fill="#000000" transform="translate(0,0)"/>
</svg>
